<svg xmlns="http://www.w3.org/2000/svg" width="12" height="12" viewBox="0 0 12 12"><defs><style>.a{fill:#74a94e;}</style></defs><title>icon-arrow-circle-green</title><path class="a" d="M9.9,6.35l-.71.71L6.36,9.89a.51.51,0,0,1-.7,0l-.71-.71a.49.49,0,0,1,0-.7L6.42,7H2.5A.51.51,0,0,1,2,6.5v-1A.51.51,0,0,1,2.5,5H6.42L4.95,3.52a.51.51,0,0,1,0-.7l.71-.71a.51.51,0,0,1,.7,0L9.19,4.94l.71.71a.51.51,0,0,1,0,.7ZM9,.8A5.87,5.87,0,0,0,6,0,5.87,5.87,0,0,0,3,.8,6,6,0,0,0,.8,3,5.87,5.87,0,0,0,0,6,5.87,5.87,0,0,0,.8,9,6,6,0,0,0,3,11.2,5.87,5.87,0,0,0,6,12a5.87,5.87,0,0,0,3-.8A6,6,0,0,0,11.2,9,5.87,5.87,0,0,0,12,6a5.87,5.87,0,0,0-.8-3A6,6,0,0,0,9,.8Z"/></svg>